<svg height="486pt" viewBox="0 -25 486 486" width="486pt" xmlns="http://www.w3.org/2000/svg"><path d="m0 436.035156 167.449219-21 107.550781-65 118.273438-43.585937 54.726562-46.414063 38-16v192zm0 0" fill="#a67c52"/><path d="m247.695312 143.9375-7.695312 44.097656h-56l14.398438-87.160156c2.582031-15.242188 17.027343-25.511719 32.273437-22.9375 15.242187 2.585938 25.503906 17.03125 22.929687 32.273438l-1.128906 6.480468" fill="#5bc9e1"/><path d="m240 188.035156 56 16 48 80-24 16-40-64-79.671875-7.199218c-5.378906-.492188-10.417969-2.851563-14.238281-6.671876-6.195313-6.179687-8.363282-15.324218-5.601563-23.625l3.511719-10.503906zm0 0" fill="#009245"/><path d="m236.753906 232.105469 7.941406 51.914062-52.695312 76.984375-24.550781-15.136718 41.488281-63.046876-20.792969-58.890624" fill="#006837"/><path d="m344 284.035156 8.335938 8.433594 10.398437-3.496094c8.242187-2.777344 17.222656 1.304688 20.554687 9.335938l4.246094 10.269531-55.605468 20.488281-11.929688-29.03125zm0 0" fill="#808080"/><path d="m192 361.003906h.921875c13.296875.003906 24.078125 10.785156 24.078125 24.085938l-18.519531 11.199218-51.480469-26.253906 20.449219-24.167968zm0 0" fill="#808080"/><path d="m302.144531 348.035156c-.578125-.003906-1.15625-.0625-1.71875-.183594-4.320312-.945312-7.050781-5.210937-6.105469-9.527343l57.503907-262.488281c1.046875-4.199219 5.242187-6.800782 9.46875-5.878907 4.226562.925781 6.953125 5.042969 6.15625 9.292969l-57.503907 262.496094c-.804687 3.667968-4.046874 6.28125-7.800781 6.289062zm0 0" fill="#666"/><path d="m290 44.035156c0 19.890625-16.125 36.015625-36.015625 36.015625s-36.015625-16.125-36.015625-36.015625 16.125-36.015625 36.015625-36.015625 36.015625 16.125 36.015625 36.015625zm0 0" fill="#f5e0cd"/><path d="m190.246094 158.074219c-4.417969.195312-8.15625-3.230469-8.351563-7.648438-.191406-4.417969 3.230469-8.15625 7.648438-8.351562l8.800781-.800781c13.261719-1.164063 26.183594-4.84375 38.070312-10.839844 3.949219-1.988282 8.761719-.398438 10.75 3.550781 1.988282 3.945313.398438 8.757813-3.546874 10.746094-13.691407 6.898437-28.5625 11.132812-43.832032 12.480469l-8.800781.800781c-.257813.054687-.496094.0625-.738281.0625zm0 0" fill="#0378a3"/><path d="m139.136719 125.082031-18.34375-3.917969c-2.320313-.496093-4.742188-.039062-6.722657 1.265626-1.980468 1.304687-3.355468 3.351562-3.8125 5.675781l-7.722656 39.121093c-.46875 2.367188.050782 4.824219 1.433594 6.796876 1.386719 1.976562 3.519531 3.300781 5.902344 3.667968l19.464844 3.007813zm0 0" fill="#0378a3"/><path d="m323.601562 15.15625-28.242187 14.078125-14.480469 7.28125-49.039062 24.480469-7.601563 3.757812c-1.117187.554688-2.347656.855469-3.597656.882813-3.058594.003906-5.855469-1.734375-7.199219-4.480469-.296875-.554688-.511718-1.148438-.640625-1.761719-1.875-4.902343-2.824219-10.109375-2.800781-15.359375.019531-18.390625 11.476562-34.828125 28.722656-41.214844 17.246094-6.382812 36.644532-1.367187 48.636719 12.574219l29.039063-14.558593c3.957031-1.964844 8.753906-.355469 10.722656 3.597656.964844 1.886718 1.132812 4.082031.472656 6.09375-.660156 2.015625-2.097656 3.679687-3.992188 4.628906zm0 0" fill="#f8cf26"/><path d="m256 131.554688-16-.367188.296875-12.800781c.351563-16.816407-10.527344-31.816407-26.625-36.695313l-19.398437-5.855468 4.621093-15.320313 19.394531 5.855469c22.96875 6.980468 38.5 28.382812 38.007813 52.382812zm0 0" fill="#0378a3"/><path d="m198.398438 100.875 6.769531-35.878906c.246093-1.296875-.050781-2.636719-.816407-3.714844-.761718-1.074219-1.933593-1.789062-3.238281-1.980469l-37.128906-5.496093c-6.65625-.984376-12.882813 3.511718-14.046875 10.132812l-20.570312 116.800781 54.632812 7.296875zm0 0" fill="#29485a"/><path d="m281.335938 169.371094c-2.875 0-5.652344-1.03125-7.832032-2.902344l-57.335937-49.335938c-5.023438-4.328124-5.589844-11.90625-1.265625-16.929687 4.328125-5.023437 11.90625-5.589844 16.929687-1.265625l51.28125 44.128906 67.511719-33.808594c3.835938-1.960937 8.429688-1.710937 12.035156.648438 3.605469 2.363281 5.664063 6.476562 5.398438 10.777344-.265625 4.300781-2.816406 8.128906-6.683594 10.03125l-74.664062 37.382812c-1.667969.839844-3.507813 1.273438-5.375 1.273438zm0 0" fill="#f0d0b4"/></svg>