<?xml version="1.0" encoding="iso-8859-1"?>
<!-- Generator: Adobe Illustrator 19.0.0, SVG Export Plug-In . SVG Version: 6.00 Build 0)  -->
<svg version="1.1" id="Capa_1" xmlns="http://www.w3.org/2000/svg" xmlns:xlink="http://www.w3.org/1999/xlink" x="0px" y="0px"
	 viewBox="0 0 512 512" style="enable-background:new 0 0 512 512;" xml:space="preserve">
<polygon style="fill:#48C2E0;" points="158.882,284.055 126.282,105.625 140.971,20.215 184.911,94.913 211.566,240.802 "/>
<polygon style="fill:#FFF3DC;" points="126.282,105.625 140.971,20.215 184.911,94.913 "/>
<polyline style="fill:#B57049;" points="287.369,242.081 311.598,158.086 343.951,166.046 328.405,242.081 "/>
<polygon style="fill:#48C2E0;" points="140.948,20.215 132.239,70.854 167.001,64.503 "/>
<polygon style="opacity:0.2;enable-background:new    ;" points="184.911,94.913 184.911,94.913 184.911,94.913 140.971,20.215 
	140.965,20.244 140.948,20.215 136.655,45.182 165.908,94.913 165.908,94.913 165.909,94.913 192.564,240.802 156.403,270.489 
	158.882,284.055 211.566,240.802 "/>
<polygon style="fill:#FFC433;" points="317.935,132.406 311.616,158.09 343.951,166.046 350.215,140.584 "/>
<path style="fill:#FFDB4C;" d="M130.614,303.692v-51.243c0-5.726,4.642-10.368,10.368-10.368h200.423
	c5.726,0,10.368,4.642,10.368,10.368v222.228c0,20.612-16.71,37.322-37.322,37.322H167.936c-20.612,0-37.322-16.71-37.322-37.322
	V347.236V303.692z"/>
<path style="fill:#F23366;" d="M351.772,252.449c0-5.726-4.642-10.368-10.368-10.368H140.982c-5.726,0-10.368,4.642-10.368,10.368
	v31.605h48.103v119.454c0,14.502,11.757,26.259,26.26,26.259c14.502,0,26.259-11.757,26.259-26.259v-44.009v-17.856
	c0-9.573,7.76-17.332,17.332-17.332c9.572,0,17.332,7.76,17.332,17.332v28.111c0,13.74,11.139,24.88,24.88,24.88l0,0
	c13.74,0,24.88-11.139,24.88-24.88v-85.701h36.113L351.772,252.449L351.772,252.449z"/>
<path style="fill:#98D4AD;" d="M383.08,116.496c-10.459,21.615-36.46,30.656-58.075,20.197
	c-21.615-10.459-30.656-36.46-20.197-58.075C315.267,57.005,369.523,0,369.523,0S393.54,94.883,383.08,116.496z"/>
<path style="opacity:0.2;enable-background:new    ;" d="M369.523,0c0,0-8.381,8.807-19.19,20.808
	c6.402,29.212,16.056,80.512,8.712,95.688c-6.522,13.479-12.751,21.079-26.529,23.099l-3.942-1.366l-8.659,27.816l-15.544,76.036
	h24.036l15.544-76.036l6.264-25.461l-0.002-0.001c13.778-2.02,26.345-10.608,32.867-24.086C393.54,94.883,369.523,0,369.523,0z"/>
<path style="opacity:0.2;enable-background:new    ;" d="M341.405,242.081h-31.468v190.761c0,20.612-16.71,37.322-37.322,37.322
	h-142v4.514c0,20.612,16.71,37.322,37.322,37.322H314.45c20.612,0,37.322-16.71,37.322-37.322V252.449
	C351.772,246.723,347.131,242.081,341.405,242.081z"/>
<g>
</g>
<g>
</g>
<g>
</g>
<g>
</g>
<g>
</g>
<g>
</g>
<g>
</g>
<g>
</g>
<g>
</g>
<g>
</g>
<g>
</g>
<g>
</g>
<g>
</g>
<g>
</g>
<g>
</g>
</svg>
