<svg height="512" viewBox="0 0 512 512" width="512" xmlns="http://www.w3.org/2000/svg"><g id="flat"><path d="m243.429 420.571-19.429 19.429 16 40 16 8h8l8-10.373v-29.627z" fill="#a8a8a8"/><path d="m260 448-20-32 40-56-24-72 64 64z" fill="#961b20"/><path d="m153.132 344.08-56-8a8 8 0 0 0 -9.132 7.92v24h-8a24 24 0 1 0 24 24v-38.776l40 5.714v17.062h-8a24 24 0 1 0 24 24v-48a8 8 0 0 0 -6.868-7.92z" fill="#fbb540"/><path d="m473.94 240.239-25.94-6.485v-7.508l22.06 5.515a8 8 0 0 0 3.88-15.522l-32-8a8 8 0 0 0 -9.94 7.761v32h-8a24 24 0 1 0 24 24v-21.754l22.06 5.515a8 8 0 0 0 3.88-15.522z" fill="#02a437"/><path d="m277.277 120-16-24h-21.277l-8 24-2 12h47.277z" fill="#fdc9a6"/><path d="m268.38 106.65a23.985 23.985 0 0 1 -31.54-1.17l3.16-9.48h21.28z" fill="#f6bb92"/><path d="m277.277 120 18.723 8v40a95.263 95.263 0 0 1 16 52.844v19.156h-80v-20.692a57.921 57.921 0 0 0 -11.585-34.754l-12.415-16.554v-40l24-8 1.321 1.321a30.2 30.2 0 0 0 43.956-1.321z" fill="#537cd8"/><path d="m184 182.4 24-14.4v-40l-40 22.222z" fill="#5d70b3"/><path d="m168 150.222-32 17.778-16 80v24l32 8 8-16-8-16 16-56 16-9.6z" fill="#fdc9a6"/><rect fill="#fdc9a6" height="64" rx="24" transform="matrix(-1 0 0 -1 506.554 144)" width="48" x="229.277" y="40"/><path d="m277.277 56v-12.223a19.776 19.776 0 0 0 -19.777-19.777 19.777 19.777 0 0 0 -17.689 10.932l-2.534 5.068h-2.377a18.9 18.9 0 0 0 -17.93 12.921 18.9 18.9 0 0 0 4.565 19.337l7.742 7.742 24-24z" fill="#55300b"/><path d="m259.174 448 60.826-96-61.049-60.9a38 38 0 0 1 -10.951-26.692v-24.408h64v16l41.16 68.6a48 48 0 0 1 6.84 24.7v2.979a48 48 0 0 1 -9.306 28.4l-49.417 67.321z" fill="#d32b39"/><path d="m301.277 448 18.723 40h-32l-28.723-17-.277-23z" fill="#cbcbcb"/><path d="m328 155.2 48-19.2 8-64v-32l-8-16h-24v16l-8 16 8 16-8 40-16 5.333z" fill="#fdc9a6"/><path d="m328 117.333-32 10.667v40l32-12.8z" fill="#5d70b3"/><g fill="#43dcfe"><path d="m216 312a7.974 7.974 0 0 1 -5.657-2.343l-4.687-4.686a46.325 46.325 0 0 1 -13.656-32.971 8 8 0 0 1 16 0 30.423 30.423 0 0 0 8.971 21.656l4.686 4.687a8 8 0 0 1 -5.657 13.657z"/><path d="m104 176a8.005 8.005 0 0 1 -7.591-10.531l2.343-7.03a50.847 50.847 0 0 1 25.67-29.6 8 8 0 0 1 7.154 14.31 34.952 34.952 0 0 0 -17.643 20.351l-2.343 7.028a8 8 0 0 1 -7.59 5.472z"/><path d="m152.006 132a8 8 0 0 1 -3.584-15.157l8-4a8 8 0 1 1 7.156 14.31l-8 4a7.973 7.973 0 0 1 -3.572.847z"/><path d="m392 171.2a8 8 0 0 1 -2.974-15.43 10.555 10.555 0 0 0 6.106-6.475l5.275-15.827a8 8 0 0 1 15.18 5.06l-5.276 15.826a26.525 26.525 0 0 1 -15.343 16.272 7.971 7.971 0 0 1 -2.968.574z"/><path d="m360 184a8 8 0 0 1 -2.975-15.43l8-3.2a8 8 0 0 1 5.944 14.856l-8 3.2a8 8 0 0 1 -2.969.574z"/><path d="m200 248a8 8 0 0 1 -8-8v-8a8 8 0 0 1 16 0v8a8 8 0 0 1 -8 8z"/></g></g></svg>