<svg id="Capa_1" enable-background="new 0 0 439.831 439.831" height="512" viewBox="0 0 439.831 439.831" width="512" xmlns="http://www.w3.org/2000/svg"><g><path d="m193.532 82.97h52.784v352.691h-52.784z" fill="#eeefee"/><path d="m299.099 435.65h-52.784v-197.993c.047-43.709 35.469-79.131 79.178-79.178h35.191v52.784h-35.191c-14.571.015-26.38 11.823-26.394 26.394z" fill="#ef5261"/><path d="m438.216 188.279-74.764 60.609c-1.888 1.529-4.657 1.237-6.186-.651-.634-.783-.98-1.759-.98-2.766v-121.218c.001-2.429 1.971-4.397 4.4-4.397 1.007 0 1.983.346 2.766.98l74.764 60.631c1.881 1.537 2.16 4.308.623 6.189-.187.228-.395.437-.623.623z" fill="#ef5261"/><path d="m223.37 5.819 60.577 74.748c1.529 1.888 1.237 4.657-.651 6.186-.783.634-1.759.98-2.766.98h-121.218c-2.426.005-4.397-1.957-4.402-4.383-.002-1.014.346-1.997.986-2.783l60.609-74.748c1.519-1.896 4.287-2.202 6.182-.683.252.202.481.431.683.683z" fill="#eeefee"/><path d="m193.532 87.716h52.784v10.379h-52.784z" fill="#dbd8dd"/><path d="m345.902 158.473h10.379v52.784h-10.379z" fill="#da364c"/><path d="m140.748 435.65h52.784v-197.993c-.047-43.709-35.469-79.131-79.178-79.178h-35.191v52.784h35.191c14.57.018 26.377 11.825 26.394 26.394z" fill="#f2c55a"/><path d="m1.616 188.279 74.764 60.609c1.888 1.529 4.657 1.237 6.186-.651.634-.783.98-1.759.98-2.766v-121.218c-.001-2.429-1.971-4.397-4.4-4.397-1.007 0-1.983.346-2.766.98l-74.764 60.631c-1.881 1.537-2.16 4.308-.623 6.189.186.228.394.437.623.623z" fill="#f2c55a"/><path d="m83.529 158.473h10.379v52.784h-10.379z" fill="#eab54e"/></g></svg>