<svg height="512" viewBox="0 0 512 512" width="512" xmlns="http://www.w3.org/2000/svg"><g id="Flat"><path d="m88 296h48v80h-48z" fill="#e44b4d"/><path d="m136 248h48v128h-48z" fill="#eebe33"/><path d="m184 272h48v104h-48z" fill="#e88604"/><path d="m232 296h48v80h-48z" fill="#e44b4d"/><path d="m280 256h48v120h-48z" fill="#eebe33"/><path d="m328 208h48v192h-48z" fill="#a2c32a"/><path d="m376 160h48v240h-48z" fill="#4ba477"/><path d="m96 320a95.62767 95.62767 0 0 1 40 8.71v47.29h-48v-55.66016c2.64-.22998 5.3-.33984 8-.33984z" fill="#d14547"/><path d="m232 313.37012v62.62988h-48v-52.96a96.21729 96.21729 0 0 1 37.34-2.11011 24.06682 24.06682 0 0 1 10.66-7.55977z" fill="#df6537"/><path d="m280 312h48v64h-48z" fill="#e88604"/><path d="m424 376v24h-48v-86.62012a24.022 24.022 0 0 1 16 22.62012v16a23.8351 23.8351 0 0 1 -1.37 8 23.8351 23.8351 0 0 1 1.37 8v8z" fill="#349966"/><path d="m155.84 335.42993a95.54345 95.54345 0 0 1 28.16-12.38993v52.96h-48v-47.29a96.19979 96.19979 0 0 1 16 9.3501c1.26-.9102 2.54-1.7801 3.84-2.63017z" fill="#e88604"/><path d="m240 312h40v64h-48v-62.62988a23.83243 23.83243 0 0 1 8-1.37012z" fill="#d14547"/><path d="m376 313.37988v86.62012h-48v-88h40a23.597 23.597 0 0 1 8 1.37988z" fill="#68b840"/><path d="m376 24v32h16l-120 120-88-96-128 128 24 24 104-104 88 96 144-144v16h32v-72z" fill="#4ba477"/><rect fill="#eebe33" height="32" rx="8" width="144" x="344" y="392"/><path d="m488 408v8a7.99786 7.99786 0 0 1 -8 8h-128a7.99786 7.99786 0 0 1 -8-8v-8a7.99786 7.99786 0 0 0 8 8h128a7.99786 7.99786 0 0 0 8-8z" fill="#e88604"/><rect fill="#eebe33" height="32" rx="8" width="144" x="344" y="424"/><path d="m488 440v8a7.99786 7.99786 0 0 1 -8 8h-128a7.99786 7.99786 0 0 1 -8-8v-8a7.99786 7.99786 0 0 0 8 8h128a7.99786 7.99786 0 0 0 8-8z" fill="#e88604"/><rect fill="#eebe33" height="32" rx="8" width="144" x="344" y="456"/><path d="m488 472v8a7.99786 7.99786 0 0 1 -8 8h-128a7.99786 7.99786 0 0 1 -8-8v-8a7.99786 7.99786 0 0 0 8 8h128a7.99786 7.99786 0 0 0 8-8z" fill="#e88604"/><path d="m392 416a23.59388 23.59388 0 0 1 -1.38 8 23.59388 23.59388 0 0 1 1.38 8v16a23.59388 23.59388 0 0 1 -1.38 8 23.59388 23.59388 0 0 1 1.38 8v16a23.59388 23.59388 0 0 1 -1.38 8h-38.62a7.99786 7.99786 0 0 1 -8-8v-16a7.99786 7.99786 0 0 1 8-8 7.99786 7.99786 0 0 1 -8-8v-16a7.99786 7.99786 0 0 1 8-8 7.99786 7.99786 0 0 1 -8-8v-16a7.99786 7.99786 0 0 1 8-8h38.62a23.59388 23.59388 0 0 1 1.38 8z" fill="#e88604"/><g fill="#df6537"><path d="m352 480h40a23.59388 23.59388 0 0 1 -1.38 8h-38.62a7.99786 7.99786 0 0 1 -8-8v-8a7.99786 7.99786 0 0 0 8 8z"/><path d="m352 448h40a23.59388 23.59388 0 0 1 -1.38 8h-38.62a7.99786 7.99786 0 0 1 -8-8v-8a7.99786 7.99786 0 0 0 8 8z"/><path d="m344 416v-8a7.99786 7.99786 0 0 0 8 8h40a23.59388 23.59388 0 0 1 -1.38 8h-38.62a7.99786 7.99786 0 0 1 -8-8z"/></g><rect fill="#eebe33" height="32" rx="8" width="144" x="232" y="328"/><path d="m376 344v8a7.99786 7.99786 0 0 1 -8 8h-128a7.99786 7.99786 0 0 1 -8-8v-8a7.99786 7.99786 0 0 0 8 8h128a7.99786 7.99786 0 0 0 8-8z" fill="#e88604"/><rect fill="#eebe33" height="32" rx="8" width="144" x="232" y="360"/><path d="m376 376v8a7.99786 7.99786 0 0 1 -8 8h-128a7.99786 7.99786 0 0 1 -8-8v-8a7.99786 7.99786 0 0 0 8 8h128a7.99786 7.99786 0 0 0 8-8z" fill="#e88604"/><rect fill="#eebe33" height="32" rx="8" width="144" x="232" y="392"/><path d="m376 408v8a7.99786 7.99786 0 0 1 -8 8h-128a7.99786 7.99786 0 0 1 -8-8v-8a7.99786 7.99786 0 0 0 8 8h128a7.99786 7.99786 0 0 0 8-8z" fill="#e88604"/><rect fill="#eebe33" height="32" rx="8" width="144" x="232" y="424"/><path d="m376 440v8a7.99786 7.99786 0 0 1 -8 8h-128a7.99786 7.99786 0 0 1 -8-8v-8a7.99786 7.99786 0 0 0 8 8h128a7.99786 7.99786 0 0 0 8-8z" fill="#e88604"/><rect fill="#eebe33" height="32" rx="8" width="144" x="232" y="456"/><path d="m376 472v8a7.99786 7.99786 0 0 1 -8 8h-128a7.99786 7.99786 0 0 1 -8-8v-8a7.99786 7.99786 0 0 0 8 8h128a7.99786 7.99786 0 0 0 8-8z" fill="#e88604"/><path d="m280 416a72.01183 72.01183 0 1 1 -72-72 72.00575 72.00575 0 0 1 72 72z" fill="#8acce7"/><path d="m169.96 354.85986a72.017 72.017 0 0 0 0 122.28028 95.82308 95.82308 0 0 0 0-122.28028z" fill="#379ec3"/><path d="m208 336a80 80 0 1 0 80 80 79.55791 79.55791 0 0 0 -80-80zm0 144a64 64 0 1 1 64-64 63.62739 63.62739 0 0 1 -64 64z" fill="#379ec3"/><path d="m144 416a64.00938 64.00938 0 0 1 30.83-54.71 94.9804 94.9804 0 0 0 -10.29-12.43018 79.95309 79.95309 0 0 0 0 134.28028 94.9804 94.9804 0 0 0 10.29-12.4301 64.00938 64.00938 0 0 1 -30.83-54.71z" fill="#2d80b3"/><path d="m200 392h16v16h-16v16h16v16h-16a8.0107 8.0107 0 0 0 8 8h24v16h-24a23.99929 23.99929 0 0 1 -24-24h-8v-16h8v-16h-8v-16h8a23.99929 23.99929 0 0 1 24-24h24v16h-24a8.01054 8.01054 0 0 0 -8 8z" fill="#379ec3"/><path d="m185.96 382.5a23.91471 23.91471 0 0 0 -1.96 9.5h-8v16h8v16h-8v16h8a23.91471 23.91471 0 0 0 1.96 9.5 95.92179 95.92179 0 0 0 0-67z" fill="#2d80b3"/><circle cx="96" cy="416" fill="#eedc9a" r="72"/><path d="m96 496a80 80 0 1 1 80-80 80.09041 80.09041 0 0 1 -80 80zm0-144a64 64 0 1 0 64 64 64.07239 64.07239 0 0 0 -64-64z" fill="#eebe33"/><path d="m120 408v-6.11133a17.91192 17.91192 0 0 0 -16-17.78662v-8.10205h-16v8.10205a17.88721 17.88721 0 0 0 -6.11133 33.78662l21.06592 10.53321a1.88835 1.88835 0 0 1 -.84326 3.57812h-12.22266a1.891 1.891 0 0 1 -1.88867-1.88867v-6.11133h-16v6.11133a17.91192 17.91192 0 0 0 16 17.78667v8.102h16v-8.102a17.88721 17.88721 0 0 0 6.11133-33.78662l-21.06592-10.53326a1.88835 1.88835 0 0 1 .84326-3.57812h12.22266a1.891 1.891 0 0 1 1.88867 1.88867v6.11133z" fill="#eebe33"/></g></svg>