<svg id="Layer_1" enable-background="new 0 0 512.106 512.106" height="512" viewBox="0 0 512.106 512.106" width="512" xmlns="http://www.w3.org/2000/svg"><g><path d="m64 72.089v128c0 8.53-3.33 16.57-9.37 22.62-20.077 20.043-54.63 5.861-54.63-22.62v-128c0-17.64 14.35-32 32-32s32 14.36 32 32z" fill="#595965"/><path d="m308 168.089c0 4.42-3.58 8-8 8h-180c-4.42 0-8-3.58-8-8v-64c0-4.42 3.58-8 8-8h32c4.42 0 8 3.58 8 8 0 8.82 7.18 16 16 16s16-7.18 16-16c0-4.42 3.58-8 8-8s8 3.58 8 8c0 8.82 7.18 16 16 16s16-7.18 16-16c0-4.42 3.58-8 8-8s8 3.58 8 8c0 9.629 8.547 17.038 17.81 15.9 6.299-.76 10.895 5.745 8.17 11.41-6.436 13.411 3.409 28.69 18.02 28.69 4.42 0 8 3.58 8 8z" fill="#d2d2fc"/><path d="m352 72.089c0 33.059.621 35.839-1.85 42.71-1.14 3.17-4.16 5.29-7.53 5.29-59.133 0-41.365.12-45.2.12-3.373 0-6.563-2.13-7.68-5.74-2.318-6.635-1.74-8.42-1.74-42.38 0-28.531 34.585-42.632 54.62-22.63 6.05 6.06 9.38 14.1 9.38 22.63z" fill="#ebb19c"/><path d="m400 104.089v64c0 4.42-3.58 8-8 8h-32c-4.42 0-8-3.58-8-8v-40c0-4.41-3.59-8-8-8h-1.38c-5.557 0-9.391-5.528-7.53-10.71.6-1.67.91-3.45.91-5.29 0-4.42 3.58-8 8-8h48c4.42 0 8 3.58 8 8z" fill="#d2d2fc"/><path d="m312.006 41.101c13.564 3.487 23.994 15.856 23.994 30.988 0 33.059.621 35.839-1.85 42.71-1.14 3.17-4.16 5.29-7.53 5.29h16c3.37 0 6.39-2.12 7.53-5.29 2.563-7.126 1.85-10.409 1.85-42.71 0-20.867-19.72-36.225-39.994-30.988z" fill="#e58d72"/><path d="m304 56.089c0 51.468.604 51.751-1.8 58.56-1.109 3.421-3.453 5.29-6.2 5.84-6.07 1.23-11.32 5.31-14.03 10.92-1.18 2.45-3.53 4.13-6.24 4.46-14.375 1.817-28.833-6.782-33.89-21.12-2.439-6.736-1.84-6.215-1.84-58.66 0-28.531 34.585-42.632 54.62-22.63 6.05 6.06 9.38 14.1 9.38 22.63z" fill="#ebb19c"/><path d="m264.005 25.1c13.565 3.487 23.995 15.857 23.995 30.989 0 51.468.604 51.751-1.8 58.56-1.109 3.421-3.453 5.29-6.2 5.84-6.07 1.23-11.32 5.31-14.03 10.92-.678 1.409-1.752 2.551-3.05 3.34 4.449 1.323 8.923 1.611 12.81 1.12 2.71-.33 5.06-2.01 6.24-4.46 2.71-5.61 7.96-9.69 14.03-10.92 2.714-.543 5.081-2.387 6.2-5.84 2.406-6.815 1.8-6.203 1.8-58.56 0-20.868-19.723-36.224-39.995-30.989z" fill="#e58d72"/><path d="m256 64.089v40c0 17.64-14.35 32-32 32s-32-14.36-32-32v-40c0-28.531 34.585-42.632 54.62-22.63 6.05 6.06 9.38 14.1 9.38 22.63z" fill="#ebb19c"/><path d="m216.005 33.1c13.565 3.487 23.995 15.857 23.995 30.989v40c0 14.88-10.211 27.426-24 30.988 20.237 5.227 40-10.127 40-30.988v-40c0-20.868-19.723-36.224-39.995-30.989z" fill="#e58d72"/><path d="m208 88.089v16c0 17.64-14.35 32-32 32s-32-14.36-32-32v-16c0-28.531 34.585-42.632 54.62-22.63 6.05 6.06 9.38 14.1 9.38 22.63z" fill="#ebb19c"/><path d="m168.005 57.1c13.565 3.487 23.995 15.857 23.995 30.989v16c0 14.88-10.211 27.426-24 30.988 20.237 5.227 40-10.127 40-30.988v-16c0-20.868-19.723-36.224-39.995-30.989z" fill="#e58d72"/><path d="m368 128.089v85.75c0 8.4-2.58 16.43-7.46 23.25l-28.07 39.31c-2.93 4.09-4.47 8.91-4.47 13.94v213.75c0 4.418-3.582 8-8 8h-128c-4.418 0-8-3.582-8-8v-213.75c0-5.03-1.54-9.85-4.46-13.93l-28.09-39.33c-4.87-6.81-7.45-14.84-7.45-23.24v-37.75h152c4.418 0 8-3.582 8-8 0-4.416-3.579-8-8-8h-4c-15.464 0-28-12.536-28-28 0-15.421 12.493-28 28-28h52c13.255 0 24 10.745 24 24z" fill="#ebb19c"/><g fill="#e58d72"><path d="m344 104.089h-32c13.23 0 24 10.77 24 24v85.75c0 8.4-2.58 16.43-7.46 23.25l-28.07 39.31c-2.93 4.09-4.47 8.91-4.47 13.94v213.75c0 4.42-3.58 8-8 8h32c4.42 0 8-3.58 8-8v-213.75c0-5.03 1.54-9.85 4.47-13.94l28.07-39.31c4.88-6.82 7.46-14.85 7.46-23.25v-85.75c0-13.23-10.77-24-24-24z"/><path d="m240 360.089c-4.418 0-8-3.582-8-8v-64c0-4.418 3.582-8 8-8s8 3.582 8 8v64c0 4.418-3.582 8-8 8z"/><path d="m272.002 400.089c-4.461 0-8.048-3.641-8.002-8.083l1-96c.046-4.39 3.619-7.917 7.998-7.917 4.461 0 8.048 3.641 8.002 8.083l-1 96c-.046 4.389-3.619 7.917-7.998 7.917z"/></g><path d="m464.158 40.115-.316 192c-.036 22.06-18.006 39.97-40.066 39.934-22.114-.036-39.97-17.945-39.934-40.066l.316-192c.036-22.06 18.006-39.97 40.066-39.934s39.971 18.006 39.934 40.066z" fill="#595965"/><path d="m512.105 72.194-.211 128c-.029 17.64-14.413 31.976-32.053 31.947-17.654-.029-31.976-14.365-31.947-32.053l.211-128c.029-17.64 14.413-31.976 32.053-31.947s31.976 14.413 31.947 32.053z" fill="#595965"/><path d="m464.105 44.449c9.57 5.552 16.02 15.912 16 27.745l-.211 128c-.02 11.802-6.47 22.118-16.017 27.649 21.136 12.268 47.976-3.008 48.017-27.649l.211-128c.041-24.609-26.746-40.076-48-27.745z" fill="#44454e"/><path d="m408.16 3.398c14.135 6.194 24.025 20.322 23.998 36.717l-.316 192c-.027 16.359-9.921 30.428-24.027 36.597 26.316 11.504 55.98-7.822 56.027-36.597l.316-192c.048-28.813-29.641-48.263-55.998-36.717z" fill="#44454e"/><path d="m64 72.089v128c0 17.654-14.312 32-32 32v-192c17.65 0 32 14.36 32 32z" fill="#44454e"/><path d="m128 40.089v192c0 10.69-4.16 20.73-11.71 28.29-25.159 25.125-68.29 7.111-68.29-28.29v-192c0-22.06 17.94-40 40-40s40 17.94 40 40z" fill="#595965"/><path d="m72 3.437c14.114 6.184 24 20.279 24 36.651v192c0 16.533-9.948 30.531-23.974 36.663 26.116 11.421 55.974-7.58 55.974-36.662v-192c0-28.875-29.749-48.153-56-36.652z" fill="#44454e"/><path d="m264 240.089c-4.418 0-8-3.582-8-8 0-17.645 14.355-32 32-32 4.418 0 8 3.582 8 8s-3.582 8-8 8c-8.822 0-16 7.178-16 16 0 4.418-3.582 8-8 8z" fill="#e58d72"/></g></svg>