<svg id="Flat" height="512" viewBox="0 0 512 512" width="512" xmlns="http://www.w3.org/2000/svg"><path d="m415.3 169.846c0-41.134-32.792-74.413-73.026-73.839-39.229.56-71.05 33.747-70.974 73.985a74.312 74.312 0 0 0 30.937 60.519 12.309 12.309 0 0 1 5.063 10.038l.033 31.451h72l-.034-31.452a12.328 12.328 0 0 1 5.081-10.05 74.318 74.318 0 0 0 30.92-60.652z" fill="#f7b030"/><path d="m384.807 168a8.005 8.005 0 0 1 -7.7-5.835 36.163 36.163 0 0 0 -20.839-23.624 8 8 0 0 1 6.058-14.809 52.282 52.282 0 0 1 30.184 34.1 8.006 8.006 0 0 1 -7.7 10.169z" fill="#ff8e26"/><rect fill="#c3c6c7" height="32" rx="16" width="96" x="295.299" y="256"/><path d="m311.3 288h64a0 0 0 0 1 0 0v16a16 16 0 0 1 -16 16h-32a16 16 0 0 1 -16-16v-16a0 0 0 0 1 0 0z" fill="#dadcde"/><g fill="#ffb632"><path d="m343.3 72a8 8 0 0 1 -8-8v-16a8 8 0 0 1 16 0v16a8 8 0 0 1 -8 8z"/><path d="m297.749 81.685a8 8 0 0 1 -7.313-4.748l-6.508-14.617a8 8 0 0 1 14.617-6.508l6.508 14.617a8.005 8.005 0 0 1 -7.3 11.256z"/><path d="m260.064 109.058a7.97 7.97 0 0 1 -5.351-2.058l-11.89-10.7a8 8 0 0 1 10.706-11.891l11.89 10.706a8 8 0 0 1 -5.355 13.946z"/><path d="m236.782 149.392a7.985 7.985 0 0 1 -2.473-.394l-15.217-4.943a8 8 0 1 1 4.943-15.217l15.217 4.943a8 8 0 0 1 -2.47 15.611z"/><path d="m215.99 197.381a8 8 0 0 1 -.826-15.957l15.912-1.673a8 8 0 0 1 1.673 15.912l-15.913 1.673a8.049 8.049 0 0 1 -.846.045z"/><path d="m470.607 197.381a8.077 8.077 0 0 1 -.846-.045l-15.912-1.673a8 8 0 1 1 1.673-15.912l15.913 1.673a8 8 0 0 1 -.828 15.957z"/><path d="m449.815 149.392a8 8 0 0 1 -2.469-15.611l15.216-4.943a8 8 0 1 1 4.944 15.217l-15.217 4.945a7.987 7.987 0 0 1 -2.474.392z"/><path d="m426.534 109.058a8 8 0 0 1 -5.356-13.946l11.889-10.706a8 8 0 1 1 10.707 11.894l-11.889 10.7a7.973 7.973 0 0 1 -5.351 2.058z"/><path d="m388.849 81.685a8.005 8.005 0 0 1 -7.3-11.256l6.508-14.617a8 8 0 0 1 14.613 6.508l-6.508 14.617a8 8 0 0 1 -7.313 4.748z"/></g><path d="m360 440h112a16 16 0 0 1 16 16v16a16 16 0 0 1 -16 16h-201.837c-4.071 0-162.092-32-166.163-32h-32v-144h72c40 0 120 72 120 72l80 24s16 8 16 16v16a16 16 0 0 1 -16 16l-80-16-56-32" fill="#f7cca9"/><path d="m24 296h48v176h-48z" fill="#2d85cc"/><path d="m344 456-80-16-56-32-48-8v16l48 8 56 24 80 16a16 16 0 0 0 16-16v-8a16 16 0 0 1 -16 16z" fill="#e0b999"/></svg>