<svg id="Capa_1" enable-background="new 0 0 511.9 511.9" height="512" viewBox="0 0 511.9 511.9" width="512" xmlns="http://www.w3.org/2000/svg"><g><path d="m441.663 292.665c-23.438-23.438-61.553-23.408-84.873 0l-171.687 171.702c-23.379 23.379-61.494 23.438-84.873 0-23.379-23.394-23.379-61.45 0-84.829l7.734-7.72c5.75-5.75 5.782-14.96.245-20.841-.104-.112-.135-.26-.245-.37-5.859-5.889-15.352-5.859-21.211-.029l-7.734 7.734c-13.173 13.178-21.389 29.464-24.666 46.522-5.446 28.352 2.77 58.839 24.666 80.744 35.099 35.099 92.201 35.094 127.295 0l171.688-171.702c11.396-11.338 31.113-11.294 42.451-.015 11.66 11.704 11.66 30.762 0 42.451l-74.268 74.238c-5.859 5.859-5.859 15.352 0 21.211s15.352 5.859 21.211 0l74.268-74.253c23.349-23.378 23.349-61.45-.001-84.843z" fill="#405480"/><path d="m428.48 30.707c-40.957-40.972-107.549-40.913-148.506 0-40.928 40.942-40.928 107.534 0 148.477.005.005.011.007.016.013 40.95 40.933 107.571 40.904 148.489-.013 40.929-40.943 40.929-107.535.001-148.477z" fill="#405480"/><path d="m428.48 179.183c40.928-40.942 40.928-107.534 0-148.477l-148.49 148.49c40.95 40.933 107.571 40.904 148.49-.013z" fill="#2d3559"/><path d="m289.418 169.768-52.98-52.987-171.716 214.139c-4.775 5.977-4.307 14.575 1.113 19.98l21.233 21.218 21.218 21.204c5.33 5.356 13.956 5.92 19.98 1.113l214.109-171.702z" fill="#ff698e"/><path d="m128.267 394.435 214.109-171.702-52.958-52.965-202.35 202.35 21.218 21.204c5.331 5.356 13.957 5.92 19.981 1.113z" fill="#d9215e"/><path d="m258.768 200.418c-.002-.002-.004-.007-.005-.009-5.859-5.859-15.352-5.859-21.211 0l-21.211 21.211c-5.859 5.859-5.859 15.352 0 21.211.002.002.007.004.009.005 5.861 5.854 15.344 5.852 21.202-.005l21.211-21.211c5.858-5.858 5.859-15.341.005-21.202z" fill="#405480"/><path d="m237.552 242.831 21.211-21.211c5.858-5.858 5.859-15.341.005-21.202l-42.418 42.418c5.861 5.854 15.344 5.852 21.202-.005z" fill="#2d3559"/><path d="m449.691 179.198-84.851-84.851-84.866-84.866c-5.859-5.859-15.352-5.859-21.211 0s-5.859 15.352 0 21.211l84.866 84.866 84.851 84.851c5.859 5.859 15.352 5.859 21.211 0s5.859-15.352 0-21.211z" fill="#e1e6f0"/><path d="m449.691 200.409c5.859-5.859 5.859-15.352 0-21.211l-84.851-84.851-21.211 21.211 84.851 84.851c5.859 5.859 15.351 5.859 21.211 0z" fill="#b6c1d3"/><path d="m364.818 221.62-63.622-63.629-63.644-63.651c-5.859-5.859-15.352-5.859-21.211 0s-5.859 15.352 0 21.211l63.644 63.651 63.622 63.629c5.859 5.859 15.352 5.859 21.211 0s5.859-15.352 0-21.211z" fill="#e1e6f0"/><path d="m364.818 242.831c5.859-5.859 5.859-15.352 0-21.211l-63.622-63.629-21.211 21.211 63.622 63.629c5.859 5.859 15.351 5.859 21.211 0z" fill="#b6c1d3"/></g></svg>