<svg height="512" viewBox="0 0 64 64" width="512" xmlns="http://www.w3.org/2000/svg"><g id="Filled_outline" data-name="Filled outline"><path d="m57 32h1v-5l-26 5-26-5v5h1a2 2 0 0 1 2 2v2a2 2 0 0 1 -2 2h-1v8l26 5 26-5v-8h-1a2 2 0 0 1 -2-2v-2a2 2 0 0 1 2-2z" fill="#dc6c54"/><path d="m39 12h-2l-2-4-2 4h-2l-2-4-2 4h-2v14h14z" fill="#ffd782"/><path d="m42 15h1a0 0 0 0 1 0 0v6a0 0 0 0 1 0 0h-1a3 3 0 0 1 -3-3 3 3 0 0 1 3-3z" fill="#f9bb4b" transform="matrix(-1 0 0 -1 82 36)"/><path d="m24 15h1a0 0 0 0 1 0 0v6a0 0 0 0 1 0 0h-1a3 3 0 0 1 -3-3 3 3 0 0 1 3-3z" fill="#f9bb4b"/><path d="m39 12h-2l-2-4-2 4h-2l-2-4-2 4h-2v-5a4 4 0 0 1 4-4h6a4 4 0 0 1 4 4z" fill="#394d5c"/><rect fill="#ffd782" height="6" rx="2" width="6" x="3" y="32"/><rect fill="#ffd782" height="6" rx="2" transform="matrix(-1 0 0 -1 116 70)" width="6" x="55" y="32"/><path d="m30 31.626v18.99l2 .384 2-.384v-19.001l-2 .385z" fill="#8b3123"/><path d="m32 32-22-9-1.325 4.637z" fill="#edeccc"/><path d="m54 23-22 9 23.325-4.363z" fill="#edeccc"/><path d="m9 54-.16-.16a3 3 0 0 0 -3.922-.279l-1.918 1.439 6 6 4-3z" fill="#ffd782"/><path d="m55 54 .16-.16a3 3 0 0 1 3.922-.279l1.918 1.439-6 6-4-3z" fill="#ffd782"/><path d="m39.248 49.606 11.752 8.394 4-4-6.796-6.116z" fill="#195c85"/><path d="m15.796 47.884-6.796 6.116 4 4 11.752-8.394z" fill="#195c85"/><path d="m13 33 13 2v9l-13-2z" fill="#f1997e"/><path d="m34 15h2v2h-2z"/><path d="m28 15h2v2h-2z"/><path d="m32 21a2 2 0 0 1 -2-2h-2a4 4 0 0 0 8 0h-2a2 2 0 0 1 -2 2z"/><path d="m40 27v-5a4 4 0 0 0 0-8v-7a5.006 5.006 0 0 0 -5-5h-6a5.006 5.006 0 0 0 -5 5v7a4 4 0 0 0 0 8v5zm0-11a2 2 0 0 1 0 4zm-14-9a3 3 0 0 1 3-3h6a3 3 0 0 1 3 3v4h-.382l-2.618-5.236-2.618 5.236h-.764l-2.618-5.236-2.618 5.236h-.382zm0 6h1.618l1.382-2.764 1.382 2.764h3.236l1.382-2.764 1.382 2.764h1.618v12h-12zm-4 5a2 2 0 0 1 2-2v4a2 2 0 0 1 -2-2z"/><path d="m59 31v-4a1 1 0 0 0 -1.188-.982l-1.812.348-1.041-3.641a1 1 0 0 0 -1.341-.651l-21.618 8.845-21.621-8.845a1 1 0 0 0 -1.341.651l-1.038 3.641-1.809-.348a1 1 0 0 0 -1.191.982v4a3 3 0 0 0 -3 3v2a3 3 0 0 0 3 3v7a1 1 0 0 0 .812.982l7.82 1.5-4.645 4.185a4.023 4.023 0 0 0 -4.668.094l-1.919 1.439a1 1 0 0 0 -.107 1.507l6 6a1 1 0 0 0 1.307.093l15.384-11.131 4.826.928 2 .384a.991.991 0 0 0 .376 0l2-.384 4.826-.928 15.388 11.131a1 1 0 0 0 1.307-.093l6-6a1 1 0 0 0 -.107-1.507l-1.919-1.439a4.025 4.025 0 0 0 -4.667-.094l-4.646-4.181 7.82-1.5a1 1 0 0 0 .812-.986v-7a3 3 0 0 0 3-3v-2a3 3 0 0 0 -3-3zm-48.346-6.652 11.663 4.772-12.347-2.375zm-5.654 12.652a1 1 0 0 1 -1-1v-2a1 1 0 0 1 1-1h2a1 1 0 0 1 1 1v2a1 1 0 0 1 -1 1zm4.094 22.68-4.572-4.572 1-.747a2.01 2.01 0 0 1 2.614.186l3.345 3.345zm4.014-2.986-2.656-2.656 5.648-5.078 6.177 1.188zm15.892-7.289-22-4.231v-6.174a3 3 0 0 0 3-3v-2a3 3 0 0 0 -3-3v-2.79l22 4.231zm4 .384-1 .192-1-.192v-16.958l.816.152a.99.99 0 0 0 .372 0l.812-.157zm20.346-25.441.684 2.4-12.347 2.372zm2.521 30.2a2.011 2.011 0 0 1 2.614-.186l1 .747-4.575 4.571-2.384-1.788zm-2.319-.509-2.656 2.656-9.165-6.546 6.173-1.189zm3.452-8.865-22 4.231v-16.964l22-4.231v2.79a3 3 0 0 0 -3 3v2a3 3 0 0 0 3 3zm3-9.174a1 1 0 0 1 -1 1h-2a1 1 0 0 1 -1-1v-2a1 1 0 0 1 1-1h2a1 1 0 0 1 1 1z"/><path d="m12.848 42.988 13 2a.964.964 0 0 0 .152.012 1 1 0 0 0 1-1v-9a1 1 0 0 0 -.848-.988l-13-2a1 1 0 0 0 -1.152.988v9a1 1 0 0 0 .848.988zm1.152-8.822 11 1.692v6.976l-11-1.692z"/><path d="m53 41h2v2h-2z"/><path d="m49 42h2v2h-2z"/></g></svg>