<svg id="Layer_1" height="512" viewBox="0 0 512 512" width="512" xmlns="http://www.w3.org/2000/svg" data-name="Layer 1"><path d="m394.25 72.62 22.05 17.03 34.27 4.58a4.241 4.241 0 0 1 3.89 6.8l-29.4 18.73-10.63 33.1a4.246 4.246 0 0 1 -7.57-2.05l-13.14-31.92-22.06-17.04-25.7 33.27a3.686 3.686 0 0 1 -5.18.67l-6.91-5.33a7.407 7.407 0 0 1 -2.1-9.13l18.03-36.36-46.44-35.87a18.472 18.472 0 1 1 22.58-29.24l46.44 35.87 30.63-26.63a7.388 7.388 0 0 1 9.37-.27l6.9 5.33a3.694 3.694 0 0 1 .66 5.18z" fill="#e5f5fd"/><path d="m262.99 172.29a14.826 14.826 0 0 1 -6.51 14.81l-23.18 15.18a14.834 14.834 0 0 0 -6.44 15.19l3.12 16.31a14.847 14.847 0 0 0 8.13 10.58l16.28 7.84a14.821 14.821 0 0 1 8.16 15.99l-5.93 32.94a14.889 14.889 0 0 1 -2.72 6.26 14.833 14.833 0 0 1 -25.33-2.63l-5.96-12.85a14.846 14.846 0 0 0 -13.45-8.58h-24.13a14.826 14.826 0 0 0 -8.52 2.69l-16.23 11.39a14.806 14.806 0 0 1 -11.94 2.29l-27.98-6.64h-.01a138.1 138.1 0 0 1 135.65-163.25z" fill="#d8ff33"/><path d="m150.36 293.06h-.01a138.147 138.147 0 0 1 106.171-160.082l-.521-3.168a138.1 138.1 0 0 0 -135.65 163.25h.01l27.98 6.64a14.806 14.806 0 0 0 11.94-2.29l2.125-1.492z" fill="#c6e02d"/><path d="m366.3 184.91-15.38 10.95a24.347 24.347 0 0 0 -9.47 13.82l-3.24 12.65a24.331 24.331 0 0 0 8.6 25.26 24.375 24.375 0 0 1 8.78 24.55l-6.54 29.2a24.4 24.4 0 0 1 -6.64 11.99l-5.71 5.66a24.4 24.4 0 0 0 -7.08 19.97l4.63 42.43.01.01a138 138 0 0 1 -213.91-88.34h.01l27.98 6.64a14.806 14.806 0 0 0 11.94-2.29l16.23-11.39a14.826 14.826 0 0 1 8.52-2.69h24.13a14.846 14.846 0 0 1 13.45 8.58l5.96 12.85a14.833 14.833 0 0 0 28.05-3.63l5.93-32.94a14.821 14.821 0 0 0 -8.16-15.99l-16.28-7.84a14.847 14.847 0 0 1 -8.13-10.58l-3.12-16.31a14.834 14.834 0 0 1 6.44-15.19l23.18-15.18a14.826 14.826 0 0 0 6.51-14.81l-6.99-42.48a137.716 137.716 0 0 1 110.3 55.1z" fill="#50a6ea"/><path d="m151.851 300.086a14.773 14.773 0 0 1 -3.511-.386l-27.98-6.64h-.01a138.016 138.016 0 0 0 135.65 112.67 139.626 139.626 0 0 0 14.942-.817 138.081 138.081 0 0 1 -119.091-104.827z" fill="#72bcef"/><path d="m366.3 184.91a137.97 137.97 0 0 1 -32.04 196.49l-.01-.01-4.63-42.43a24.4 24.4 0 0 1 7.08-19.97l5.71-5.66a24.4 24.4 0 0 0 6.64-11.99l6.54-29.2a24.375 24.375 0 0 0 -8.78-24.55 24.331 24.331 0 0 1 -8.6-25.26l3.24-12.65a24.347 24.347 0 0 1 9.47-13.82z" fill="#d8ff33"/><g fill="#284268"><path d="m478.86 261.4a6.38 6.38 0 0 1 6.37 6.37 231.82 231.82 0 0 1 -2.31 32.62 6.365 6.365 0 0 1 -6.29 5.47 6.953 6.953 0 0 1 -.91-.06 6.381 6.381 0 0 1 -5.41-7.21 218.255 218.255 0 0 0 2.18-30.82 6.374 6.374 0 0 1 6.37-6.37z"/><path d="m482.92 235.17a6.363 6.363 0 0 1 -5.4 7.2 7.069 7.069 0 0 1 -.91.06 6.357 6.357 0 0 1 -6.29-5.47 215.148 215.148 0 0 0 -6.54-30.18 6.368 6.368 0 0 1 12.22-3.59 227.379 227.379 0 0 1 6.92 31.98z"/><path d="m468.74 334.66a6.362 6.362 0 0 1 3.94 8.1 229.2 229.2 0 0 1 -12.9 30.08 6.372 6.372 0 0 1 -5.66 3.45 6.242 6.242 0 0 1 -2.92-.72 6.362 6.362 0 0 1 -2.73-8.58 215.509 215.509 0 0 0 12.17-28.4 6.369 6.369 0 0 1 8.1-3.93z"/><path d="m459.79 162.73a6.364 6.364 0 1 1 -11.31 5.84 217.75 217.75 0 0 0 -16.09-26.35 6.363 6.363 0 1 1 10.36-7.39 228.1 228.1 0 0 1 17.04 27.9z"/><path d="m435.12 400.55a6.363 6.363 0 0 1 1.06 8.94 231.237 231.237 0 0 1 -22.01 24.19 6.366 6.366 0 1 1 -8.79-9.21 219.617 219.617 0 0 0 20.8-22.86 6.363 6.363 0 0 1 8.94-1.06z"/><path d="m381.83 451.84a6.364 6.364 0 0 1 -1.9 8.8 228.043 228.043 0 0 1 -28.69 15.69 6.366 6.366 0 1 1 -5.29-11.58 216.246 216.246 0 0 0 27.08-14.82 6.375 6.375 0 0 1 8.8 1.91z"/><path d="m314.74 482.9a6.367 6.367 0 0 1 -4.69 7.69 229.311 229.311 0 0 1 -32.26 5.38c-.21.02-.41.03-.61.03a6.364 6.364 0 0 1 -.59-12.7 217.2 217.2 0 0 0 30.47-5.09 6.369 6.369 0 0 1 7.68 4.69z"/><path d="m277.79 39.57a6.369 6.369 0 0 1 -.59 12.71c-.2 0-.4-.01-.61-.03a221.4 221.4 0 0 0 -30.89-.73 6.367 6.367 0 1 1 -.6-12.72 234.9 234.9 0 0 1 32.69.77z"/><path d="m235.42 483.3a6.364 6.364 0 0 1 -.59 12.7c-.2 0-.41-.01-.61-.02a230.791 230.791 0 0 1 -32.26-5.39 6.368 6.368 0 0 1 2.99-12.38 217.2 217.2 0 0 0 30.47 5.09z"/><path d="m209.64 49.65a6.352 6.352 0 0 1 -4.69 7.68 216.947 216.947 0 0 0 -29.42 9.4 6.367 6.367 0 0 1 -4.74-11.82 227.319 227.319 0 0 1 31.17-9.95 6.352 6.352 0 0 1 7.68 4.69z"/><path d="m166.05 464.75a6.367 6.367 0 0 1 -2.65 12.16 6.238 6.238 0 0 1 -2.64-.58 228.934 228.934 0 0 1 -28.71-15.7 6.367 6.367 0 1 1 6.89-10.71 217.977 217.977 0 0 0 27.11 14.83z"/><path d="m140.87 76.81a6.367 6.367 0 0 1 -1.91 8.8 219.381 219.381 0 0 0 -24.72 18.53 6.366 6.366 0 1 1 -8.34-9.62 229.977 229.977 0 0 1 26.17-19.61 6.368 6.368 0 0 1 8.8 1.9z"/><path d="m106.6 424.45a6.366 6.366 0 0 1 -8.79 9.21 232.348 232.348 0 0 1 -22.01-24.19 6.37 6.37 0 0 1 10.01-7.88 219.521 219.521 0 0 0 20.79 22.86z"/><path d="m84.76 124.99a6.375 6.375 0 0 1 1.06 8.95 217.551 217.551 0 0 0 -17.34 25.57 6.367 6.367 0 0 1 -5.52 3.18 6.236 6.236 0 0 1 -3.18-.86 6.369 6.369 0 0 1 -2.32-8.7 229.1 229.1 0 0 1 18.36-27.07 6.366 6.366 0 0 1 8.94-1.07z"/><path d="m63.52 366.98a6.364 6.364 0 1 1 -11.31 5.84 229.013 229.013 0 0 1 -12.89-30.07 6.364 6.364 0 1 1 12.03-4.16 217.891 217.891 0 0 0 12.17 28.39z"/><path d="m47.42 188.84a6.366 6.366 0 0 1 3.94 8.1 216.631 216.631 0 0 0 -7.98 29.84 6.361 6.361 0 0 1 -6.24 5.17 7.164 7.164 0 0 1 -1.21-.11 6.36 6.36 0 0 1 -5.05-7.45 229.371 229.371 0 0 1 8.44-31.61 6.374 6.374 0 0 1 8.1-3.94z"/><path d="m41.68 298.59a6.363 6.363 0 0 1 -5.4 7.2 7.069 7.069 0 0 1 -.91.06 6.357 6.357 0 0 1 -6.29-5.47 231.679 231.679 0 0 1 -2.31-32.61 6.37 6.37 0 0 1 12.74-.01 219.889 219.889 0 0 0 2.17 30.83z"/><path d="m240.808 53.284a6.71 6.71 0 0 0 4.913 1.735 219.643 219.643 0 0 1 30.826.725q.328.028.651.029a6.867 6.867 0 0 0 .638-13.7 233.117 233.117 0 0 0 -32.758-.769 6.88 6.88 0 0 0 -4.27 11.984z"/><path d="m173.164 70.684a6.829 6.829 0 0 0 2.552-.5 215.013 215.013 0 0 1 29.352-9.372 6.867 6.867 0 0 0 -3.225-13.351 228.585 228.585 0 0 0 -31.235 9.975 6.868 6.868 0 0 0 2.556 13.243z"/><path d="m139.231 89.031a6.868 6.868 0 1 0 -7.436-11.548 231.436 231.436 0 0 0 -26.221 19.655 6.867 6.867 0 1 0 9 10.377 217.73 217.73 0 0 1 24.657-18.484z"/><path d="m337.925 45.33a7.106 7.106 0 1 0 1.282 9.971 7.117 7.117 0 0 0 -1.283-9.971z"/><path d="m355.469 58.882a7.11 7.11 0 1 0 2.707 4.723 7.118 7.118 0 0 0 -2.708-4.724z"/><path d="m373.013 72.433a7.108 7.108 0 1 0 2.708 4.722 7.082 7.082 0 0 0 -2.709-4.722z"/><path d="m390.563 85.989a7.109 7.109 0 1 0 1.281 9.972 7.115 7.115 0 0 0 -1.286-9.976z"/><path d="m306.939 480.718a215.864 215.864 0 0 1 -30.4 5.076 6.868 6.868 0 0 0 .637 13.705q.323 0 .652-.03a230.435 230.435 0 0 0 32.333-5.4 6.868 6.868 0 0 0 -3.227-13.352z"/><path d="m235.464 485.8a216.214 216.214 0 0 1 -30.4-5.075 6.868 6.868 0 0 0 -3.226 13.352 230.181 230.181 0 0 0 32.334 5.4c.219.02.435.03.65.03a6.868 6.868 0 0 0 .638-13.7z"/><path d="m438.7 134.744a6.868 6.868 0 0 0 -6.725 10.761 216.87 216.87 0 0 1 16.059 26.295 6.867 6.867 0 1 0 12.2-6.3 230.455 230.455 0 0 0 -17.075-27.965 6.824 6.824 0 0 0 -4.459-2.791z"/><path d="m372.761 452.51a215.747 215.747 0 0 1 -27.022 14.781 6.868 6.868 0 1 0 5.712 12.493 229.933 229.933 0 0 0 28.749-15.725 6.868 6.868 0 0 0 -7.435-11.549z"/><path d="m435.427 403.15a6.866 6.866 0 0 0 -9.644 1.146 217.941 217.941 0 0 1 -20.746 22.804 6.868 6.868 0 0 0 9.479 9.941 231.616 231.616 0 0 0 22.057-24.249 6.874 6.874 0 0 0 -1.146-9.642z"/><path d="m469.821 240.029a6.9 6.9 0 0 0 6.791 5.9 7.192 7.192 0 0 0 .976-.069 6.876 6.876 0 0 0 5.83-7.768 229.26 229.26 0 0 0 -6.937-32.043 6.867 6.867 0 0 0 -13.18 3.864 215.578 215.578 0 0 1 6.52 30.116z"/><path d="m468.906 337.18a6.87 6.87 0 0 0 -8.736 4.245 215.218 215.218 0 0 1 -12.149 28.337 6.868 6.868 0 1 0 12.2 6.3 229.119 229.119 0 0 0 12.926-30.151 6.867 6.867 0 0 0 -4.244-8.735z"/><path d="m35.838 235.325a6.865 6.865 0 0 0 8.037-5.453 215.287 215.287 0 0 1 7.957-29.772 6.867 6.867 0 0 0 -12.98-4.49 228.989 228.989 0 0 0 -8.467 31.675 6.869 6.869 0 0 0 5.453 8.037z"/><path d="m166.263 467.294a216.4 216.4 0 0 1 -27.048-14.8 6.867 6.867 0 0 0 -7.437 11.547 230.147 230.147 0 0 0 28.771 15.741 6.792 6.792 0 0 0 2.853.625 6.869 6.869 0 0 0 2.861-13.115z"/><path d="m42.18 301.512a218.689 218.689 0 0 1 -2.17-30.753 6.868 6.868 0 1 0 -13.735.01 232.414 232.414 0 0 0 2.308 32.681 6.9 6.9 0 0 0 6.79 5.9 7.207 7.207 0 0 0 .977-.069 6.878 6.878 0 0 0 5.83-7.769z"/><path d="m478.858 263.9a6.876 6.876 0 0 0 -6.868 6.867 218.906 218.906 0 0 1 -2.17 30.751 6.868 6.868 0 0 0 5.83 7.768 7.185 7.185 0 0 0 .976.069 6.9 6.9 0 0 0 6.791-5.9 232.685 232.685 0 0 0 2.308-32.688 6.875 6.875 0 0 0 -6.867-6.867z"/><path d="m51.827 341.419a6.867 6.867 0 0 0 -12.98 4.491 229.176 229.176 0 0 0 12.918 30.135 6.867 6.867 0 1 0 12.2-6.3 215.466 215.466 0 0 1 -12.138-28.326z"/><path d="m86.2 404.277a6.867 6.867 0 1 0 -10.791 8.5 231.718 231.718 0 0 0 22.051 24.245 6.868 6.868 0 0 0 9.48-9.939 217.9 217.9 0 0 1 -20.74-22.806z"/><path d="m85.071 127.6a6.878 6.878 0 0 0 -9.644 1.146 230.97 230.97 0 0 0 -18.4 27.138 6.87 6.87 0 0 0 5.938 10.308 6.9 6.9 0 0 0 5.95-3.43 216.84 216.84 0 0 1 17.3-25.516 6.879 6.879 0 0 0 -1.144-9.646z"/><path d="m408.393 163.151a10.214 10.214 0 0 0 10.782-3.624 6 6 0 0 0 .965-1.833l9.969-31.043 27.578-17.566a5.976 5.976 0 0 0 1.526-1.393 10.242 10.242 0 0 0 -8.459-16.492l-32.054-4.286-16.04-12.385 22.03-28.522a9.694 9.694 0 0 0 -1.745-13.6l-6.9-5.33a13.427 13.427 0 0 0 -16.975.492l-26.911 23.4-42.547-32.864a24.474 24.474 0 0 0 -29.921 38.738l42.546 32.863-15.837 31.952a13.425 13.425 0 0 0 3.811 16.545l6.9 5.333a9.622 9.622 0 0 0 5.906 2.023 9.84 9.84 0 0 0 1.255-.081 9.632 9.632 0 0 0 6.437-3.689l22.031-28.523 16.041 12.39 12.3 29.863a10.209 10.209 0 0 0 7.312 7.632zm-9.128-43.551a6 6 0 0 0 -1.88-2.463l-30.831-23.81a6 6 0 1 0 -7.336 9.5l4.024 3.108-20.622 26.7-5.078-3.923a1.394 1.394 0 0 1 -.4-1.717l18.031-36.365a6 6 0 0 0 -1.708-7.413l-46.439-35.871a12.474 12.474 0 0 1 15.251-19.746l46.439 35.87a6 6 0 0 0 7.605-.221l30.621-26.626a1.394 1.394 0 0 1 1.766-.051l5.077 3.921-20.622 26.7-4.024-3.108a6 6 0 1 0 -7.335 9.5l30.831 23.815a6 6 0 0 0 2.873 1.2l30.017 4.01-23.69 15.089a6 6 0 0 0 -2.489 3.225l-8.56 26.657z"/><path d="m256 126.809c-79.38 0-143.96 64.58-143.96 143.959s64.58 143.96 143.96 143.96 143.96-64.58 143.96-143.96-64.58-143.959-143.96-143.959zm-131.96 143.959c0-71.062 56.465-129.174 126.884-131.852l6.141 37.341a8.84 8.84 0 0 1 -3.876 8.822l-23.173 15.174a20.765 20.765 0 0 0 -9.048 21.335l3.115 16.312a20.914 20.914 0 0 0 11.424 14.862l16.281 7.839a8.856 8.856 0 0 1 4.86 9.521l-5.932 32.945a8.871 8.871 0 0 1 -1.62 3.725 8.83 8.83 0 0 1 -15.08-1.568l-5.968-12.843a20.9 20.9 0 0 0 -18.891-12.053h-24.129a20.729 20.729 0 0 0 -11.968 3.781l-16.225 11.391a8.819 8.819 0 0 1 -7.113 1.365l-24.108-5.723a132.353 132.353 0 0 1 -1.574-20.374zm199.618 71.838 4.23 38.767a131.176 131.176 0 0 1 -71.888 21.355c-61.247 0-112.878-41.944-127.688-98.615l18.638 4.425a20.846 20.846 0 0 0 16.78-3.218l16.224-11.389a8.787 8.787 0 0 1 5.074-1.6h24.129a8.86 8.86 0 0 1 8.009 5.11l5.967 12.843a20.661 20.661 0 0 0 16.737 11.941 21.45 21.45 0 0 0 2.214.115 20.641 20.641 0 0 0 16.622-8.357 20.929 20.929 0 0 0 3.82-8.786l5.932-32.945a20.891 20.891 0 0 0 -11.464-22.46l-16.281-7.839a8.867 8.867 0 0 1 -4.843-6.3l-3.115-16.313a8.8 8.8 0 0 1 3.836-9.044l23.172-15.174a20.848 20.848 0 0 0 9.143-20.808l-5.806-35.314a131.793 131.793 0 0 1 94.544 47.7l-10.2 7.264a30.423 30.423 0 0 0 -11.81 17.217l-3.24 12.657a30.385 30.385 0 0 0 10.727 31.474 18.469 18.469 0 0 1 6.619 18.508l-6.547 29.2a18.352 18.352 0 0 1 -5 9.04l-5.709 5.653a30.226 30.226 0 0 0 -8.826 24.893zm64.3-71.838a131.76 131.76 0 0 1 -48.89 102.45l-3.481-31.918a18.292 18.292 0 0 1 5.339-15.056l5.708-5.653a30.331 30.331 0 0 0 8.267-14.941l6.547-29.2a30.522 30.522 0 0 0 -10.939-30.588 18.386 18.386 0 0 1 -6.491-19.044l3.24-12.657a18.4 18.4 0 0 1 7.146-10.417l10.468-7.455a131.211 131.211 0 0 1 23.088 74.479z"/></g></svg>