<svg id="Layer_3" enable-background="new 0 0 64 64" height="512" viewBox="0 0 64 64" width="512" xmlns="http://www.w3.org/2000/svg"><path d="m40.293 13.707-8.707-8.707h-8.586v-2h9c.266 0 .52.105.707.293l9 9z" fill="#4d5d7a"/><path d="m20 12h26c1.105 0 2 .895 2 2v16c0 1.105-.895 2-2 2h-26c-1.105 0-2-.895-2-2v-16c0-1.105.895-2 2-2z" fill="#d6759e"/><path d="m20 12c-1.105 0-2 .895-2 2v12.4c1.753.381 3.592.6 5.5.6 10.889 0 19.771-6.632 20.435-15z" fill="#f097d0"/><g fill="#fff"><path d="m22 16h12v4h-12z"/><circle cx="42" cy="26" r="2"/><circle cx="34" cy="26" r="2"/></g><path d="m14 18h4v8h-4z" fill="#8892a0"/><path d="m48 17 6 3v-8l-6 3" fill="#f097d0"/><path d="m10 30 4-4v-8l-4-4z" fill="#d6759e"/><path d="m27 36v4h10v-4" fill="#d6759e"/><path d="m22 6h-10c-1.105 0-2-.895-2-2 0-1.105.895-2 2-2h10c1.105 0 2 .895 2 2 0 1.105-.895 2-2 2z" fill="#8892a0"/><path d="m39 32v4h-14v-4" fill="#8892a0"/><path d="m34 40v22h-4v-22" fill="#4d5d7a"/><path d="m30 50-12 12h-6l18-18" fill="#8892a0"/><path d="m34 50 12 12h6l-18-18" fill="#8892a0"/><path d="m41 19h2v2h-2z" fill="#fff"/><path d="m41 15h2v2h-2z" fill="#fff"/></svg>