<?xml version="1.0" encoding="iso-8859-1"?>
<!-- Generator: Adobe Illustrator 19.0.0, SVG Export Plug-In . SVG Version: 6.00 Build 0)  -->
<svg version="1.1" id="Capa_1" xmlns="http://www.w3.org/2000/svg" xmlns:xlink="http://www.w3.org/1999/xlink" x="0px" y="0px"
	 viewBox="0 0 472 472" style="enable-background:new 0 0 472 472;" xml:space="preserve">
<path style="fill:#F8C09C;" d="M360,352V240h-32l-20.888-31.328c-7.372-11.059-16.225-21.056-26.312-29.712
	c-26.324-22.562-59.85-34.962-94.52-34.96H96l-73.376,73.376c-4.243,4.244-6.625,9.999-6.624,16C16,245.871,26.129,256,38.624,256
	c6.001,0.001,11.756-2.381,16-6.624L72,232l6.152,20.496c11.023,36.745,41.047,64.661,78.496,72.984
	c7.547,1.674,15.254,2.519,22.984,2.52H296L360,352z"/>
<g>
	<path style="fill:#5A6570;" d="M176,408H8c-4.418,0-8-3.582-8-8s3.582-8,8-8h168c4.418,0,8,3.582,8,8S180.418,408,176,408z"/>
	<path style="fill:#5A6570;" d="M216,408h-8c-4.418,0-8-3.582-8-8s3.582-8,8-8h8c4.418,0,8,3.582,8,8S220.418,408,216,408z"/>
</g>
<path style="fill:#EF937D;" d="M238.544,219.048c-14.286-17.138-35.433-27.064-57.744-27.104h-21.032H112L72,232l6.152,20.496
	c13.439,44.818,54.69,75.511,101.48,75.504H256v-60.728C256.001,249.65,249.824,232.586,238.544,219.048z"/>
<path style="fill:#F6F6E7;" d="M281.376,70.624L32,320l-16,48l48-16l249.376-249.376c4.243-4.244,6.625-9.999,6.624-16
	C320,74.129,309.871,64,297.376,64C291.375,63.999,285.62,66.381,281.376,70.624z"/>
<path style="fill:#31B1AE;" d="M48,304c17.673,0,32,14.327,32,32l192-192l-32-32L48,304z"/>
<path style="fill:#FFD884;" d="M240.003,112.017l24.002-24.002l32.001,32.001l-24.002,24.002L240.003,112.017z"/>
<path style="fill:#F8C09C;" d="M368,352V240h-88l-32-8h-78.056c-6.367-0.001-12.474,2.529-16.976,7.032
	c-9.369,9.372-9.369,24.564,0,33.936c4.502,4.503,10.609,7.033,16.976,7.032H224l13.712,24l8.312,14.544
	c6.505,11.383,16.233,20.586,27.96,26.448c9.218,4.608,19.382,7.008,29.688,7.008L368,352z"/>
<path style="fill:#EE8EB4;" d="M360,208h112v160H360V208z"/>
<path style="fill:#D1E3EE;" d="M416,344c-8.837,0-16-7.163-16-16s7.163-16,16-16s16,7.163,16,16S424.837,344,416,344z"/>
<g>
</g>
<g>
</g>
<g>
</g>
<g>
</g>
<g>
</g>
<g>
</g>
<g>
</g>
<g>
</g>
<g>
</g>
<g>
</g>
<g>
</g>
<g>
</g>
<g>
</g>
<g>
</g>
<g>
</g>
</svg>
