<?xml version="1.0" standalone="no"?>
<!DOCTYPE svg PUBLIC "-//W3C//DTD SVG 20010904//EN"
 "http://www.w3.org/TR/2001/REC-SVG-20010904/DTD/svg10.dtd">
<svg version="1.0" xmlns="http://www.w3.org/2000/svg"
 width="680.000000pt" height="463.000000pt" viewBox="0 0 680.000000 463.000000"
 preserveAspectRatio="xMidYMid meet">
<metadata>
Created by potrace 1.16, written by Peter Selinger 2001-2019
</metadata>
<g transform="translate(0.000000,463.000000) scale(0.100000,-0.100000)"
fill="#000000" stroke="none">
<path d="M0 3468 l1 -1163 40 -30 c23 -16 54 -40 70 -52 17 -12 62 -34 102
-49 40 -15 83 -35 97 -44 14 -10 44 -27 68 -39 23 -12 42 -28 42 -37 0 -8 5
-12 10 -9 6 4 17 2 24 -4 16 -14 205 -40 239 -34 16 3 32 -1 42 -11 9 -9 23
-16 31 -16 9 0 1 -12 -19 -30 -37 -32 -66 -106 -69 -177 -1 -38 5 -49 88 -148
49 -58 101 -125 116 -147 15 -23 50 -66 77 -97 28 -31 76 -85 108 -121 92
-103 126 -161 102 -176 -5 -3 -58 -8 -117 -10 -84 -4 -114 -2 -137 10 -17 9
-32 11 -35 6 -7 -11 -80 -1 -80 11 0 5 -15 9 -32 9 -25 0 -29 -3 -18 -10 13
-8 13 -10 -2 -10 -23 0 -68 21 -68 32 0 4 -7 8 -14 8 -8 0 -37 12 -63 26 -37
19 -56 24 -83 18 -19 -3 -89 -6 -154 -5 -95 1 -128 5 -164 21 -24 11 -51 20
-59 20 -8 0 -26 6 -41 14 -15 8 -44 17 -65 21 l-37 7 0 -626 0 -626 390 0
c347 0 390 2 390 16 0 13 -10 14 -70 8 -61 -6 -70 -4 -70 10 0 19 -25 21 -191
16 -129 -3 -209 7 -209 25 0 7 6 16 13 18 9 4 8 8 -3 16 -13 9 -12 12 5 25 11
9 30 16 43 16 19 0 22 5 22 40 0 38 -1 40 -31 40 -17 0 -53 8 -80 17 -48 17
-63 38 -34 49 13 5 13 8 0 21 -8 8 -15 25 -15 38 0 15 -7 25 -23 29 l-22 6 24
20 c19 16 38 20 102 20 43 0 79 4 79 9 0 5 39 11 88 14 141 9 174 14 182 26
21 36 97 49 202 35 33 -4 61 -1 92 11 25 10 52 15 61 12 8 -4 15 -1 15 5 0 12
88 4 118 -11 56 -27 87 -46 103 -62 11 -11 27 -19 36 -19 49 -1 157 -20 165
-28 15 -15 -20 -47 -67 -60 -84 -22 -165 -56 -165 -69 0 -26 106 -12 139 18
19 18 35 20 153 19 21 0 50 -5 64 -10 14 -6 42 -10 62 -10 20 -1 48 -7 62 -15
16 -9 55 -14 105 -15 76 0 118 -11 102 -26 -4 -4 1 -13 11 -20 20 -16 98 -19
107 -4 3 5 -1 33 -10 62 -25 86 -22 99 36 137 93 61 141 60 192 -4 l27 -34
-34 -75 c-19 -41 -42 -109 -51 -151 -9 -41 -21 -78 -26 -81 -8 -5 -39 -69 -39
-80 0 -2 866 -4 1925 -4 l1924 0 -13 38 c-8 21 -32 64 -54 96 -22 31 -44 71
-47 87 -4 16 -27 51 -53 76 -37 38 -52 46 -77 45 -17 -1 -63 5 -101 14 -38 8
-91 20 -119 26 -110 22 -140 33 -138 54 4 36 31 142 39 156 5 7 10 45 11 83 1
39 5 116 9 172 l6 101 59 43 c33 23 59 46 59 51 0 4 -12 8 -27 9 -16 0 -22 3
-15 6 6 2 10 9 7 14 -8 12 28 -2 37 -15 5 -8 38 -1 100 21 151 52 238 64 463
64 246 -1 337 -12 502 -62 71 -21 213 -78 227 -90 6 -5 14 -9 18 -9 4 0 8 821
8 1825 l0 1825 -1643 0 -1643 0 4 -58 4 -58 -42 -13 c-49 -14 -44 -23 25 -46
60 -20 128 -62 120 -75 -3 -5 0 -7 8 -4 9 3 29 -12 52 -38 43 -51 50 -66 60
-135 6 -45 4 -53 -9 -53 -9 0 -16 5 -16 12 0 26 -13 -4 -16 -39 -6 -55 -9 -72
-17 -79 -4 -4 1 -12 10 -19 13 -10 6 -13 -47 -19 -44 -5 -65 -4 -70 4 -6 9
-28 7 -86 -8 -43 -11 -82 -18 -88 -15 -12 8 -128 12 -140 6 -4 -3 -2 -10 5
-15 11 -7 9 -8 -4 -4 -10 3 -38 6 -62 6 -37 0 -44 3 -47 23 -4 26 20 107 32
107 5 0 -7 17 -26 38 -20 20 -47 54 -61 75 -14 20 -28 37 -30 37 -12 0 -43
-22 -39 -28 2 -4 -16 -8 -40 -9 -24 -1 -44 3 -44 8 0 5 -4 9 -9 9 -14 0 -33
-83 -41 -173 l-6 -82 -22 49 c-12 26 -27 68 -33 92 -10 39 -14 44 -41 44 -16
0 -59 -16 -95 -35 -36 -19 -76 -35 -89 -35 -28 0 -27 -12 12 -150 13 -46 24
-93 24 -105 1 -18 2 -18 13 -4 16 21 66 46 147 74 43 15 69 31 77 46 11 21 12
21 22 -17 14 -52 25 -144 18 -144 -3 0 -18 5 -33 12 -23 11 -28 10 -43 -8 -9
-11 -27 -23 -40 -27 -20 -5 -22 -3 -17 16 4 19 2 18 -16 -6 -11 -16 -32 -33
-45 -38 -13 -5 -27 -19 -32 -32 -10 -25 -36 -41 -52 -31 -5 3 0 19 12 35 22
32 19 65 -6 55 -8 -3 -22 -9 -30 -12 -12 -5 -15 2 -15 30 0 27 4 36 18 36 16
1 16 1 -1 11 -13 7 -22 7 -31 0 -18 -15 -26 -3 -26 41 0 33 -2 37 -14 26 -8
-7 -10 -14 -5 -16 15 -6 10 -22 -6 -22 -17 0 -49 56 -39 71 9 16 -37 106 -61
119 -24 13 -51 71 -32 67 7 -1 11 4 9 11 -1 8 1 11 6 8 4 -3 28 0 53 6 65 16
97 56 67 86 -15 15 18 28 104 41 46 6 73 16 88 31 l22 22 -27 58 c-15 32 -37
70 -49 84 -21 27 -21 27 -99 16 -42 -6 -82 -8 -88 -5 -5 4 -16 1 -24 -5 -12
-10 -10 -18 18 -54 32 -39 62 -130 50 -150 -3 -5 -20 8 -37 29 -35 41 -56 46
-135 31 l-43 -8 6 43 c3 23 13 50 21 59 13 14 13 19 -1 38 -10 14 -26 22 -44
22 -16 0 -33 7 -38 16 -6 11 -11 13 -16 5 -10 -16 -26 -14 -26 3 0 19 -20 24
-105 26 -68 1 -165 31 -165 51 0 5 -12 9 -27 9 -27 -1 -28 -1 -8 -17 16 -13
17 -15 3 -10 -10 4 -18 2 -18 -3 0 -6 10 -11 23 -11 16 -1 18 -2 5 -6 -20 -5
-23 -25 -8 -53 6 -11 15 -54 20 -96 9 -73 9 -78 -18 -128 -15 -28 -30 -52 -34
-54 -5 -2 -8 -12 -8 -23 0 -14 -7 -19 -25 -19 -13 0 -33 -9 -44 -21 -11 -12
-24 -18 -30 -14 -15 9 -14 75 2 75 8 1 7 5 -4 13 -11 8 -18 38 -23 102 -4 49
-10 93 -12 97 -3 4 -16 8 -28 8 -13 0 -34 8 -47 18 -26 21 -79 37 -79 25 0 -5
11 -26 25 -48 13 -22 31 -57 41 -77 9 -21 19 -37 22 -36 4 1 21 -5 37 -12 l30
-14 -33 -4 c-29 -3 -32 -6 -26 -25 9 -29 24 -47 39 -47 11 0 35 -40 35 -60 0
-7 -23 -19 -50 -25 -49 -12 -115 -94 -104 -128 4 -12 2 -17 -4 -13 -6 3 -2
-12 9 -33 10 -22 19 -49 19 -60 0 -12 9 -47 20 -80 l21 -58 -30 -32 c-35 -37
-46 -39 -62 -8 -6 12 -20 31 -29 42 -10 11 -33 46 -50 78 l-32 58 29 29 c15
16 36 30 46 30 20 0 23 20 5 38 -10 10 -10 17 0 32 28 45 19 50 -87 50 -62 0
-101 -4 -103 -11 -2 -6 -30 24 -63 67 -59 76 -144 172 -197 223 -15 14 -36 47
-47 74 -11 26 -27 47 -34 47 -8 0 -26 11 -40 24 -15 14 -34 27 -44 31 -10 3
-27 25 -39 48 l-20 42 -442 3 -442 2 0 -1162z m5656 480 c5 -13 7 -27 6 -32
-2 -5 4 -6 11 -3 10 4 13 0 10 -12 -2 -9 -23 -24 -46 -33 -23 -9 -57 -22 -75
-29 -27 -11 -34 -11 -41 -1 -12 20 -157 36 -178 19 -9 -6 -13 -6 -13 1 0 15
22 27 43 24 12 -2 17 4 18 22 1 14 2 32 3 39 1 13 68 23 183 25 66 2 72 0 79
-20z m-3352 -36 c9 -28 86 -82 118 -82 51 0 126 -30 131 -52 7 -24 27 -15 27
13 0 10 5 19 10 19 6 0 10 -5 10 -11 0 -17 -20 -49 -30 -49 -23 0 -50 -36 -50
-67 0 -35 -10 -40 -53 -24 -19 8 -26 21 -37 71 -8 40 -19 64 -31 71 -24 12
-25 -7 -4 -58 8 -19 15 -37 15 -39 0 -9 -32 -3 -73 15 l-45 20 -7 -52 c-4 -29
-13 -88 -20 -132 -8 -44 -10 -83 -6 -87 3 -4 36 -15 72 -24 38 -9 84 -30 112
-50 42 -31 47 -38 46 -72 0 -20 -3 -31 -6 -24 -10 26 -25 11 -21 -23 3 -28 1
-35 -14 -35 -10 0 -20 10 -24 25 -7 27 -24 34 -24 10 0 -18 -40 -12 -77 11
-33 20 -35 18 -31 -25 3 -34 1 -38 -14 -30 -30 16 -32 9 -4 -20 15 -15 26 -32
24 -37 -5 -19 22 -74 36 -74 9 0 16 -4 16 -10 0 -5 -4 -10 -10 -10 -5 0 -10
-13 -10 -29 0 -40 -27 -49 -28 -9 -1 48 -17 56 -47 23 -20 -21 -25 -34 -20
-54 4 -19 3 -22 -5 -11 -9 13 -14 7 -11 -12 3 -18 -18 -6 -24 13 -5 14 -13 19
-26 16 -33 -9 -31 10 11 87 42 80 43 112 5 134 -15 8 -16 16 -5 67 l12 57 -33
34 c-18 19 -38 49 -44 67 -7 24 -18 34 -42 42 -33 9 -46 35 -19 35 23 0 28 17
13 47 -8 15 -12 42 -10 59 3 20 -3 46 -16 72 -27 54 -27 80 2 91 12 5 26 6 30
4 14 -8 59 19 90 55 19 21 38 32 56 32 15 0 36 7 47 15 25 19 32 19 38 -3z
m1160 -58 c3 -9 6 -24 6 -34 0 -10 11 -31 24 -47 13 -15 31 -45 39 -65 14 -34
14 -37 -1 -37 -9 -1 -34 -4 -55 -7 -31 -5 -43 -2 -63 17 -27 26 -31 61 -8 79
9 8 14 26 13 44 -1 17 -1 39 0 49 1 21 37 23 45 1z m-1610 -269 c4 -36 11 -76
16 -89 7 -20 4 -30 -20 -58 -16 -18 -30 -38 -30 -44 0 -7 -11 -19 -24 -28
l-25 -16 15 48 c27 89 27 92 9 92 -9 0 -13 5 -10 10 3 6 -1 10 -9 10 -28 0
-30 45 -4 72 13 13 31 36 42 51 10 15 22 25 26 22 4 -2 10 -34 14 -70z m-1373
-10 c13 9 49 -14 49 -30 0 -8 7 -15 15 -15 8 0 15 7 15 16 0 8 5 12 10 9 6 -3
10 -15 10 -26 0 -11 7 -19 16 -19 14 0 14 -2 0 -15 -19 -19 -25 -19 -48 2 -17
15 -22 15 -71 0 -103 -32 -133 -36 -213 -30 -64 4 -83 10 -93 24 -8 14 -8 19
0 19 7 0 0 9 -15 21 -14 11 -26 25 -26 30 0 15 81 10 136 -9 44 -16 58 -16
114 -5 40 8 68 20 74 30 6 12 11 14 14 5 2 -7 8 -10 13 -7z m2453 -31 c3 -8
12 -14 21 -14 20 0 19 -16 -1 -24 -24 -9 -46 -7 -39 4 3 6 1 10 -4 10 -17 0
-13 -11 11 -37 12 -13 30 -23 41 -23 16 0 18 -5 12 -27 -3 -16 -12 -34 -19
-41 -18 -19 -205 -59 -312 -67 -103 -8 -126 2 -83 39 13 12 23 29 21 38 -5 26
16 57 44 64 15 4 23 12 20 19 -4 12 11 35 25 35 4 0 9 -9 12 -20 6 -23 32 -21
129 11 32 11 64 19 73 19 8 0 15 9 15 20 0 22 25 18 34 -6z m-278 -279 c6 -14
8 -14 18 0 7 10 23 14 46 12 l35 -2 3 -63 c2 -50 0 -62 -12 -62 -8 0 -19 -6
-23 -13 -4 -7 -26 -22 -49 -34 -40 -21 -41 -21 -82 -2 -29 13 -42 26 -42 39 0
25 11 25 63 -1 l42 -22 -19 22 c-11 11 -23 21 -28 21 -16 0 -88 50 -88 61 0 7
9 5 24 -4 12 -9 41 -18 62 -22 35 -5 34 -3 -21 20 -69 30 -89 45 -58 45 12 0
25 5 28 10 10 17 95 12 101 -5z m-1546 -226 c0 -5 5 -7 10 -4 6 4 23 -23 40
-60 16 -36 43 -85 60 -110 16 -24 30 -50 30 -59 0 -17 -35 -25 -70 -15 -14 4
-37 10 -52 13 -18 4 -37 21 -53 46 l-26 40 -79 -2 c-50 -2 -83 1 -91 9 -6 6
-14 32 -17 58 l-5 47 44 -4 c24 -3 53 -8 64 -13 19 -8 19 -8 2 12 -17 19 -16
20 20 31 21 7 54 13 73 15 19 2 38 5 43 5 4 1 7 -3 7 -9z m145 -331 c9 -8 26
-77 28 -108 2 -23 -1 -25 -50 -28 -41 -2 -67 4 -120 27 -37 16 -96 36 -131 44
-35 8 -66 17 -69 21 -13 13 7 17 40 8 19 -6 65 -7 101 -5 62 5 66 7 66 31 0
24 1 24 65 20 35 -2 67 -7 70 -10z m69 -271 c-1 -40 -20 -61 -64 -72 -16 -4
-28 -1 -35 8 -5 8 -27 16 -47 19 -43 5 -37 -12 12 -32 31 -13 37 -24 20 -35
-6 -4 -8 -16 -4 -27 4 -13 2 -18 -4 -14 -6 3 -17 -3 -25 -14 -14 -21 -36 -23
-49 -6 -3 5 -17 2 -32 -7 -14 -9 -31 -17 -37 -17 -15 0 -212 125 -228 144 -10
12 -5 13 28 9 23 -3 46 -1 53 4 7 6 58 14 113 17 95 7 132 17 146 39 9 13 74
26 119 24 34 -2 35 -3 34 -40z m4733 -1 c100 -26 230 -78 268 -108 30 -23 32
-54 9 -137 -16 -58 -16 -59 15 -192 41 -168 85 -290 128 -352 56 -80 53 -83
-119 -91 -166 -8 -353 -43 -512 -97 -77 -26 -145 -44 -149 -39 -5 4 0 27 11
51 35 79 90 273 96 338 3 35 10 69 15 75 5 6 12 56 15 111 4 55 14 171 22 259
9 87 13 168 10 181 -3 12 -2 25 1 29 10 10 84 -1 190 -28z m-4033 -515 c-7
-45 22 -172 61 -271 35 -87 59 -168 79 -265 18 -85 44 -173 56 -190 4 -5 11
-26 15 -45 4 -19 24 -65 44 -101 21 -36 41 -77 45 -92 l6 -27 -105 0 c-90 0
-108 3 -122 19 -88 93 -113 117 -143 140 -19 14 -66 57 -103 95 l-68 70 37 32
c41 37 123 81 198 106 l51 18 -46 -5 c-62 -6 -124 -34 -184 -84 -27 -22 -55
-41 -61 -41 -7 0 -15 20 -19 45 -5 39 -13 51 -57 86 -28 22 -64 47 -80 55 -24
12 -28 20 -26 53 1 44 -23 84 -80 131 -35 29 -36 30 -12 30 32 1 105 34 116
53 10 16 41 35 194 115 58 30 123 67 145 83 56 39 67 38 59 -10z m3222 -988
c-1 -33 -5 -47 -13 -45 -7 1 -13 -2 -13 -8 0 -5 5 -10 10 -10 12 0 3 -48 -13
-67 -5 -7 -6 -29 -2 -49 4 -26 0 -57 -17 -108 -12 -39 -26 -72 -30 -74 -5 -2
-8 -12 -8 -22 0 -9 -7 -23 -15 -30 -13 -10 -17 -7 -29 21 -12 28 -12 38 1 73
8 23 16 48 17 56 1 8 12 37 24 64 12 27 22 53 22 58 0 5 8 23 17 41 9 18 16
44 14 59 -3 31 19 99 30 93 4 -3 6 -26 5 -52z m-342 -20 c10 -38 37 -100 60
-138 54 -88 86 -175 85 -223 -1 -20 -3 -29 -6 -19 -2 9 -12 17 -21 17 -19 0
-52 67 -59 119 -4 36 -26 60 -54 61 -29 0 -36 23 -35 127 1 96 0 103 -19 104
l-20 0 20 9 c11 5 22 9 25 9 3 1 14 -29 24 -66z m-3597 5 c7 -5 22 -8 35 -6
13 2 31 -4 41 -13 9 -9 30 -22 45 -30 30 -15 84 -51 92 -60 3 -3 23 -14 45
-25 42 -19 77 -47 131 -103 l33 -34 45 27 46 27 42 -40 43 -40 -44 -1 c-24 0
-71 7 -105 17 -33 9 -77 17 -96 17 -22 1 -34 6 -32 14 1 7 -8 12 -20 12 -13 0
-36 7 -52 15 -15 8 -38 15 -51 15 -14 0 -25 7 -28 20 -8 30 -25 24 -35 -12 -7
-27 -5 -35 10 -46 10 -7 18 -21 18 -31 0 -21 36 -71 52 -71 5 0 29 -17 53 -37
23 -21 60 -44 81 -51 53 -18 104 -45 104 -54 0 -27 -122 17 -202 73 -45 32
-188 163 -188 173 0 14 -74 72 -132 104 -33 18 -69 42 -81 53 -22 20 -22 21
-3 35 11 8 30 14 43 14 19 0 23 5 23 31 0 31 1 31 38 24 20 -4 42 -11 49 -17z"/>
<path d="M1890 4621 c8 -5 101 -13 205 -19 146 -8 199 -14 227 -28 38 -17 38
-17 135 14 54 17 109 33 123 34 14 2 -139 5 -340 6 -211 1 -359 -2 -350 -7z"/>
<path d="M2887 4618 c5 -7 15 -31 22 -53 7 -22 17 -50 24 -63 13 -28 2 -51
-34 -69 -22 -11 -20 -12 21 -10 44 2 44 2 53 -38 4 -22 9 -48 10 -57 2 -24 11
-22 26 5 7 12 31 37 55 55 47 38 185 102 219 102 12 0 29 4 36 9 32 21 -43 25
-113 6 l-70 -18 -37 42 c-34 38 -69 54 -69 31 0 -24 -28 -7 -49 30 -20 36 -26
40 -63 40 -31 0 -38 -3 -31 -12z"/>
<path d="M3150 4625 c0 -3 35 -23 78 -44 44 -22 93 -52 111 -67 17 -14 33 -25
35 -23 1 2 26 32 54 67 29 35 52 65 52 68 0 2 -74 4 -165 4 -91 0 -165 -2
-165 -5z"/>
<path d="M1850 4544 c0 -9 -16 -42 -35 -74 -36 -59 -46 -115 -24 -137 7 -7 12
-29 13 -50 1 -51 17 -54 39 -8 10 20 27 39 38 42 10 3 21 16 24 29 3 13 7 35
10 49 7 34 -2 50 -21 34 -8 -7 -14 -7 -14 -1 0 5 7 12 15 16 25 9 20 82 -7
100 -29 20 -38 20 -38 0z"/>
<path d="M1276 4486 c12 -40 37 -81 41 -68 8 21 23 13 23 -13 0 -14 9 -34 20
-45 22 -22 70 -27 70 -8 0 6 2 9 5 6 10 -9 -7 -37 -25 -43 -11 -3 -33 1 -50
10 l-31 16 7 -38 c3 -21 10 -42 14 -47 13 -13 162 3 157 17 -2 7 -19 57 -37
112 -18 55 -36 104 -41 109 -5 6 -43 11 -84 11 -72 2 -75 1 -69 -19z"/>
<path d="M6766 808 c-77 -254 -115 -560 -87 -703 10 -53 5 -65 -27 -65 -14 0
-55 -5 -90 -11 -48 -9 -61 -14 -49 -21 11 -5 24 -5 36 1 27 15 120 16 133 3 7
-7 36 -12 65 -12 l53 0 0 445 c0 245 -2 445 -5 445 -2 0 -16 -37 -29 -82z"/>
<path d="M1745 121 c-10 -8 -77 -31 -210 -69 -178 -52 -177 -47 -11 -50 162
-3 163 -3 197 58 12 21 31 41 41 44 11 2 17 9 13 15 -8 13 -18 14 -30 2z"/>
</g>
</svg>
